<?xml version="1.0" encoding="UTF-8"?>
<svg width="780px" height="520px" viewBox="0 0 780 520" version="1.1" xmlns="http://www.w3.org/2000/svg" xmlns:xlink="http://www.w3.org/1999/xlink">
    <!-- Generator: Sketch 63.1 (92452) - https://sketch.com -->
    <title>organization_icon</title>
    <desc>Created with Sketch.</desc>
    <defs>
        <linearGradient x1="50%" y1="0%" x2="50%" y2="100%" id="linearGradient-1">
            <stop stop-color="#81B1FF" offset="0%"></stop>
            <stop stop-color="#1879FF" offset="100%"></stop>
        </linearGradient>
        <linearGradient x1="50.0000478%" y1="100%" x2="50.0000478%" y2="38.0540751%" id="linearGradient-2">
            <stop stop-color="#87CCFF" offset="0%"></stop>
            <stop stop-color="#DDF0FF" offset="100%"></stop>
        </linearGradient>
        <linearGradient x1="50.0000478%" y1="100%" x2="50.0000478%" y2="38.0540751%" id="linearGradient-3">
            <stop stop-color="#87CCFF" offset="0%"></stop>
            <stop stop-color="#DDF0FF" offset="100%"></stop>
        </linearGradient>
        <linearGradient x1="50%" y1="0%" x2="50%" y2="100%" id="linearGradient-4">
            <stop stop-color="#81B1FF" offset="0%"></stop>
            <stop stop-color="#1879FF" offset="100%"></stop>
        </linearGradient>
        <linearGradient x1="50%" y1="0%" x2="50%" y2="100%" id="linearGradient-5">
            <stop stop-color="#81B1FF" offset="0%"></stop>
            <stop stop-color="#1879FF" offset="100%"></stop>
        </linearGradient>
        <linearGradient x1="50.0000478%" y1="100%" x2="50.0000478%" y2="38.0540751%" id="linearGradient-6">
            <stop stop-color="#87CCFF" offset="0%"></stop>
            <stop stop-color="#DDF0FF" offset="100%"></stop>
        </linearGradient>
        <linearGradient x1="50.0000478%" y1="100%" x2="50.0000478%" y2="38.0540751%" id="linearGradient-7">
            <stop stop-color="#87CCFF" offset="0%"></stop>
            <stop stop-color="#DDF0FF" offset="100%"></stop>
        </linearGradient>
        <linearGradient x1="50%" y1="0%" x2="50%" y2="100%" id="linearGradient-8">
            <stop stop-color="#81B1FF" offset="0%"></stop>
            <stop stop-color="#1879FF" offset="100%"></stop>
        </linearGradient>
    </defs>
    <g id="Page-1" stroke="none" stroke-width="1" fill="none" fill-rule="evenodd">
        <g id="Artboard-Copy-2" transform="translate(-18809.000000, -1179.000000)">
            <g id="organization_icon" transform="translate(18809.000000, 1179.000000)">
                <g id="person2" transform="translate(419.856459, 29.856459)">
                    <path d="M90.2138416,288.673177 L150.070533,348.531389 L209.927224,288.674697 L224.891777,288.674697 C299.112554,288.674697 359.568193,349.127295 359.568193,423.351113 L359.568193,455.037535 C359.568193,463.433202 352.76216,470.239234 344.366493,470.239234 L59.7119599,470.239177 L59.7129187,434.44613 C59.7129187,384.70463 36.4027882,340.288644 0.170956897,311.615256 C21.6370268,297.135677 47.4796142,288.673177 75.2492887,288.673177 L90.2138416,288.673177 Z" id="body" fill="url(#linearGradient-1)"></path>
                    <path d="M209.927224,239.59145 L209.927224,318.602283 L150.070533,378.458974 L90.2138416,318.602283 L90.2138416,239.59145 L111.76073,250.065421 C135.405454,261.437813 164.734092,261.437813 188.378815,250.065421 L209.927224,239.59145 Z" id="neck" fill="url(#linearGradient-2)" fill-rule="nonzero"></path>
                    <path d="M194.962671,19.3188263 C174.612156,19.3188263 156.055442,27.1005762 142.288783,41.1667087 C124.632009,58.5255292 96.4997443,79.1755177 60.5842093,79.1755177 L30.3571502,109.104623 L30.3571502,168.961315 C30.3571502,215.049827 57.2930414,257.249744 98.5945384,277.002833 C114.455992,284.784583 131.814812,288.674697 150.070533,288.674697 C168.326254,288.674697 185.685074,284.783062 201.248574,277.002833 C242.848024,257.251265 269.783916,215.051347 269.783916,168.961315 L269.783916,124.069176 C269.783916,82.766159 236.264168,19.3188263 194.962671,19.3188263 Z" id="face" fill="url(#linearGradient-3)" fill-rule="nonzero"></path>
                    <path d="M269.783916,119.713383 L269.783916,164.605521 C269.783916,123.304024 246.813134,136.82512 196.960722,128.696449 C163.889467,123.304024 138.616111,100.945769 107.678,96.597849 C87.0525929,93.699236 61.2789763,101.404414 30.3571502,119.713383 C30.3571502,53.5723088 83.929459,0 150.070533,0 C216.211607,0 269.783916,53.5723088 269.783916,119.713383 Z" id="hair" fill="url(#linearGradient-4)" transform="translate(150.070533, 82.302761) scale(-1, 1) translate(-150.070533, -82.302761) "></path>
                </g>
                <g id="person1">
                    <path d="M17.108311,519.502392 C7.83309822,519.502392 0.314052632,511.983347 0.314052632,502.708134 L0.314052632,467.702182 C0.314052632,385.702536 67.1031388,318.915129 149.101105,318.915129 L165.633373,318.915129 L231.760766,385.044201 L297.888158,318.916809 L314.420426,318.916809 C396.416713,318.916809 463.205799,385.702536 463.205799,467.702182 L463.205799,502.708134 C463.205799,511.983347 455.686753,519.502392 446.411541,519.502392 L17.108311,519.502392 Z" id="body" fill="url(#linearGradient-5)"></path>
                    <path d="M297.888158,264.691507 L297.888158,351.979665 L231.760766,418.107057 L165.633373,351.979665 L165.633373,264.691507 L189.437555,276.262751 C215.559344,288.826536 247.960507,288.826536 274.082297,276.262751 L297.888158,264.691507 Z" id="neck" fill="url(#linearGradient-6)" fill-rule="nonzero"></path>
                    <path d="M281.35589,21.3427033 C258.873416,21.3427033 238.372665,29.9396842 223.163785,45.4794115 C203.657254,64.6567751 172.577799,87.4700957 132.899684,87.4700957 L99.5059809,120.534632 L99.5059809,186.662024 C99.5059809,237.578856 129.263727,284.199718 174.892048,306.022177 C192.415177,314.619158 211.592541,318.916809 231.760766,318.916809 C251.92899,318.916809 271.106354,314.617478 288.300316,306.022177 C334.257804,284.201397 364.01555,237.580536 364.01555,186.662024 L364.01555,137.0669 C364.01555,91.4368995 326.984211,21.3427033 281.35589,21.3427033 Z" id="face" fill="url(#linearGradient-7)" fill-rule="nonzero"></path>
                    <path d="M364.01555,132.254785 L364.01555,181.849909 C364.01555,136.221589 326.984211,99.1902488 281.35589,99.1902488 C262.873809,99.1902488 245.723512,104.997703 231.760766,115.710761 C228.741158,118.02501 225.864301,120.559263 223.163785,123.326957 C203.655574,142.504321 172.57612,165.317641 132.899684,165.317641 L99.5059809,165.317641 L99.5059809,132.254785 C99.5059809,59.1846459 158.690627,0 231.760766,0 C304.830904,0 364.01555,59.1846459 364.01555,132.254785 Z" id="hair" fill="url(#linearGradient-8)"></path>
                </g>
            </g>
        </g>
    </g>
</svg>